<mxfile host="app.diagrams.net" modified="2023-08-27T04:28:43.894Z" agent="Mozilla/5.0 (Macintosh; Intel Mac OS X 10_15_7) AppleWebKit/537.36 (KHTML, like Gecko) Chrome/116.0.0.0 Safari/537.36" etag="AR4G1cMUV579iYFeieAS" version="21.6.9" type="github">
  <diagram id="3228e29e-7158-1315-38df-8450db1d8a1d" name="Page-1">
    <mxGraphModel dx="1126" dy="1014" grid="0" gridSize="10" guides="1" tooltips="1" connect="1" arrows="1" fold="1" page="1" pageScale="1" pageWidth="1000" pageHeight="500" background="#EFF1F3" math="0" shadow="0">
      <root>
        <mxCell id="0" />
        <mxCell id="1" parent="0" />
        <mxCell id="pKHi42C1Sa4GpXv71mz_-2" value="&lt;div style=&quot;font-family: Menlo, Monaco, &amp;quot;Courier New&amp;quot;, monospace; line-height: 24px;&quot;&gt;&lt;div style=&quot;&quot;&gt;&lt;font color=&quot;#333333&quot; style=&quot;font-size: 30px;&quot;&gt;key1&lt;/font&gt;&lt;/div&gt;&lt;/div&gt;" style="rounded=1;whiteSpace=wrap;html=1;strokeWidth=5;fontSize=30;strokeColor=none;fillColor=#9AC7BF;align=center;" parent="1" vertex="1">
          <mxGeometry x="224" y="573" width="109.36" height="74" as="geometry" />
        </mxCell>
        <mxCell id="pKHi42C1Sa4GpXv71mz_-3" value="&lt;div style=&quot;font-family: Menlo, Monaco, &amp;quot;Courier New&amp;quot;, monospace; line-height: 24px;&quot;&gt;&lt;div style=&quot;&quot;&gt;&lt;font color=&quot;#333333&quot; style=&quot;font-size: 30px;&quot;&gt;value1&lt;/font&gt;&lt;/div&gt;&lt;/div&gt;" style="rounded=1;whiteSpace=wrap;html=1;strokeWidth=5;fontSize=30;strokeColor=none;fillColor=#FDD276;align=center;" parent="1" vertex="1">
          <mxGeometry x="333.36" y="573" width="127.64" height="74" as="geometry" />
        </mxCell>
        <mxCell id="pKHi42C1Sa4GpXv71mz_-4" value="&lt;div style=&quot;font-family: Menlo, Monaco, &amp;quot;Courier New&amp;quot;, monospace; line-height: 24px;&quot;&gt;&lt;div style=&quot;&quot;&gt;&lt;font color=&quot;#333333&quot; style=&quot;font-size: 30px;&quot;&gt;key2&lt;/font&gt;&lt;/div&gt;&lt;/div&gt;" style="rounded=1;whiteSpace=wrap;html=1;strokeWidth=5;fontSize=30;strokeColor=none;fillColor=#9AC7BF;align=center;" parent="1" vertex="1">
          <mxGeometry x="461" y="573" width="109.36" height="74" as="geometry" />
        </mxCell>
        <mxCell id="pKHi42C1Sa4GpXv71mz_-5" value="&lt;div style=&quot;font-family: Menlo, Monaco, &amp;quot;Courier New&amp;quot;, monospace; line-height: 24px;&quot;&gt;&lt;div style=&quot;&quot;&gt;&lt;font color=&quot;#333333&quot; style=&quot;font-size: 30px;&quot;&gt;value2&lt;/font&gt;&lt;/div&gt;&lt;/div&gt;" style="rounded=1;whiteSpace=wrap;html=1;strokeWidth=5;fontSize=30;strokeColor=none;fillColor=#FDD276;align=center;" parent="1" vertex="1">
          <mxGeometry x="570.36" y="573" width="127.64" height="74" as="geometry" />
        </mxCell>
        <mxCell id="PMdSLTWqf5IWHLFB1831-1" value="" style="shape=flexArrow;endArrow=classic;startArrow=none;html=1;rounded=0;strokeWidth=1;fillColor=#9AC7BF;strokeColor=#9AC7BF;startFill=0;" parent="1" edge="1">
          <mxGeometry width="100" height="100" relative="1" as="geometry">
            <mxPoint x="518.49" y="671" as="sourcePoint" />
            <mxPoint x="518.49" y="711" as="targetPoint" />
          </mxGeometry>
        </mxCell>
        <mxCell id="PMdSLTWqf5IWHLFB1831-2" value="&lt;div style=&quot;font-family: Menlo, Monaco, &amp;quot;Courier New&amp;quot;, monospace; line-height: 24px;&quot;&gt;&lt;div style=&quot;&quot;&gt;&lt;font color=&quot;#333333&quot; style=&quot;font-size: 30px;&quot;&gt;tag&lt;/font&gt;&lt;/div&gt;&lt;/div&gt;" style="rounded=1;whiteSpace=wrap;html=1;strokeWidth=5;fontSize=30;strokeColor=none;fillColor=#9AC7BF;align=center;" parent="1" vertex="1">
          <mxGeometry x="464" y="723" width="109.36" height="74" as="geometry" />
        </mxCell>
        <mxCell id="PMdSLTWqf5IWHLFB1831-4" value="" style="shape=flexArrow;endArrow=classic;startArrow=none;html=1;rounded=0;strokeWidth=1;fillColor=#9AC7BF;strokeColor=#9AC7BF;startFill=0;" parent="1" edge="1">
          <mxGeometry width="100" height="100" relative="1" as="geometry">
            <mxPoint x="503.28000000000003" y="815" as="sourcePoint" />
            <mxPoint x="474" y="852" as="targetPoint" />
          </mxGeometry>
        </mxCell>
        <mxCell id="PMdSLTWqf5IWHLFB1831-5" value="&lt;div style=&quot;line-height: 24px;&quot;&gt;&lt;div style=&quot;&quot;&gt;&lt;font face=&quot;Menlo, Monaco, Courier New, monospace&quot; color=&quot;#333333&quot;&gt;field_number&lt;/font&gt;&lt;br&gt;&lt;/div&gt;&lt;/div&gt;" style="rounded=1;whiteSpace=wrap;html=1;strokeWidth=5;fontSize=30;strokeColor=none;fillColor=#9AC7BF;align=center;" parent="1" vertex="1">
          <mxGeometry x="262" y="865" width="238" height="74" as="geometry" />
        </mxCell>
        <mxCell id="PMdSLTWqf5IWHLFB1831-6" value="" style="shape=flexArrow;endArrow=classic;startArrow=none;html=1;rounded=0;strokeWidth=1;fillColor=#9AC7BF;strokeColor=#9AC7BF;startFill=0;" parent="1" edge="1">
          <mxGeometry width="100" height="100" relative="1" as="geometry">
            <mxPoint x="534" y="815" as="sourcePoint" />
            <mxPoint x="563.28" y="852" as="targetPoint" />
          </mxGeometry>
        </mxCell>
        <mxCell id="PMdSLTWqf5IWHLFB1831-7" value="&lt;div style=&quot;line-height: 24px;&quot;&gt;&lt;div style=&quot;&quot;&gt;&lt;font face=&quot;Menlo, Monaco, Courier New, monospace&quot; color=&quot;#333333&quot;&gt;wire_type&lt;/font&gt;&lt;br&gt;&lt;/div&gt;&lt;/div&gt;" style="rounded=1;whiteSpace=wrap;html=1;strokeWidth=5;fontSize=30;strokeColor=none;fillColor=#9AC7BF;align=center;" parent="1" vertex="1">
          <mxGeometry x="539" y="863" width="238" height="74" as="geometry" />
        </mxCell>
      </root>
    </mxGraphModel>
  </diagram>
</mxfile>
